<?xml version="1.0" encoding="UTF-8" standalone="no"?>
<svg
   xml:space="preserve"
   width="84mm"
   height="40mm"
   version="1.1"
   style="clip-rule:evenodd;fill-rule:evenodd;image-rendering:optimizeQuality;shape-rendering:geometricPrecision;text-rendering:geometricPrecision"
   viewBox="0 0 8400 4000"
   id="svg19"
   sodipodi:docname="logo.svg"
   inkscape:version="1.2.2 (b0a8486541, 2022-12-01)"
   xmlns:inkscape="http://www.inkscape.org/namespaces/inkscape"
   xmlns:sodipodi="http://sodipodi.sourceforge.net/DTD/sodipodi-0.dtd"
   xmlns="http://www.w3.org/2000/svg"
   xmlns:svg="http://www.w3.org/2000/svg"><sodipodi:namedview
   id="namedview21"
   pagecolor="#ffffff"
   bordercolor="#666666"
   borderopacity="1.0"
   inkscape:pageshadow="2"
   inkscape:pageopacity="0.0"
   inkscape:pagecheckerboard="0"
   inkscape:document-units="mm"
   showgrid="false"
   inkscape:showpageshadow="2"
   inkscape:deskcolor="#d1d1d1"
   inkscape:zoom="4.1073413"
   inkscape:cx="157.40109"
   inkscape:cy="77.665813"
   inkscape:window-width="1920"
   inkscape:window-height="1015"
   inkscape:window-x="0"
   inkscape:window-y="0"
   inkscape:window-maximized="1"
   inkscape:current-layer="svg19" />
 <defs
   id="defs4">
  <style
   type="text/css"
   id="style2">
   <![CDATA[
    .fil0 {fill:black}
    .fil1 {fill:#9558B2}
    .fil3 {fill:#389826;fill-rule:nonzero}
    .fil2 {fill:#4063D8;fill-rule:nonzero}
    .fil4 {fill:#CB3C33;fill-rule:nonzero}
   ]]>
  </style>
 </defs>
  
 <path
   id="path42414-9"
   style="font-weight:900;font-size:16px;line-height:1.25;font-family:JuliaMono;-inkscape-font-specification:'JuliaMono Heavy';white-space:pre;fill:#4063d8;fill-opacity:1;stroke:#4063d8;stroke-width:40;stroke-linecap:round;stroke-linejoin:bevel;stroke-miterlimit:4;stroke-dasharray:none;stroke-opacity:1"
   d="m 1724.055,2767.96 h -207.434 v -44.027 h 207.434 z m -457.623,-345.44 h 52.917 l 148.59,408.516 h -52.917 z m -686.433,441.113 v -488.527 h 46.567 v 488.527 z M 454.058,2767.96 H 246.625 v -44.027 H 454.058 Z M 72,2863.633 v -488.527 h 46.567 v 488.527 z m 940.433,-970.28 h 52.916 l 148.59,408.517 h -52.916 z M 579.999,2334.466 V 1845.94 h 46.567 v 488.526 z m -507.999,0 V 1845.94 h 46.567 v 488.526 z m 1458.168,-561.763 148.59,-408.517 h 52.917 l -148.59,408.517 z M 962.057,1709.626 H 754.624 V 1665.6 H 962.057 Z M 72,1805.3 v -488.527 h 46.567 V 1805.3 Z M 1849.996,1276.133 V 787.606 h 46.567 v 488.527 z m -572.134,-10.16 q 23.495,-33.443 41.699,-72.178 18.203,-38.524 28.363,-77.47 10.372,-38.947 10.372,-72.602 0,-57.997 -20.955,-118.11 -20.744,-60.113 -59.479,-117.263 h 51.647 q 42.545,55.456 67.098,119.38 24.765,63.923 24.765,122.766 0,37.465 -11.43,73.025 -11.43,35.349 -31.115,68.792 -19.473,33.443 -48.895,73.66 z m -61.806,-85.513 h -207.433 v -44.027 h 207.433 z m -253.999,0 H 754.624 v -44.027 h 207.433 z m -382.058,95.673 V 787.606 h 46.567 v 488.527 z m -507.999,0 V 787.606 h 46.567 v 488.527 z m 1448.431,-970.28 h 52.917 l 148.59,408.517 h -52.917 z m -304.375,345.44 h -207.433 v -44.027 h 207.433 z m -253.999,0 H 754.624 V 607.266 H 962.057 Z M 72,746.966 V 258.44 h 46.567 V 746.966 Z M 1470.056,122.126 H 1262.622 V 78.1 h 207.434 z m -254,0 H 1008.623 V 78.1 h 207.433 z m -253.999,0 H 754.624 V 78.1 h 207.433 z m -254,0 H 500.624 V 78.1 h 207.433 z m -253.999,0 H 246.625 V 78.1 h 207.433 z" /><path
   id="path42422-3"
   style="font-weight:900;font-size:16px;line-height:1.25;font-family:JuliaMono;-inkscape-font-specification:'JuliaMono Heavy';white-space:pre;fill:#cb3c33;fill-opacity:1;stroke:#cb3c33;stroke-width:40;stroke-linecap:round;stroke-linejoin:bevel;stroke-miterlimit:4;stroke-dasharray:none;stroke-opacity:1"
   d="m 2740.052,2767.96 h -207.433 v -44.027 h 207.433 z m -253.999,0 H 2278.62 v -44.027 h 207.433 z m -254,0 H 2024.62 v -44.027 h 207.433 z m -457.622,-345.44 h 52.917 l 148.59,408.516 h -52.917 z m 1025.734,-120.65 148.59,-408.517 h 52.917 l -148.59,408.517 z m -60.113,-63.077 h -207.433 v -44.027 h 207.433 z m -253.999,0 H 2278.62 v -44.027 h 207.433 z m -965.622,-345.44 h 52.917 l 148.59,408.517 h -52.917 z m 1269.997,-529.167 h 52.917 l 148.59,408.517 h -52.917 z m -304.375,345.44 H 2278.62 V 1665.6 h 207.433 z m -701.885,63.077 148.59,-408.517 h 52.916 l -148.59,408.517 z M 2486.053,1180.46 H 2278.62 v -44.027 h 207.433 z m -254,0 H 2024.62 v -44.027 h 207.433 z" /><path
   id="path42436-8"
   style="font-weight:900;font-size:16px;line-height:1.25;font-family:JuliaMono;-inkscape-font-specification:'JuliaMono Heavy';white-space:pre;fill:#9558b2;fill-opacity:1;stroke:#9558b2;stroke-width:40;stroke-linecap:round;stroke-linejoin:bevel;stroke-miterlimit:4;stroke-dasharray:none;stroke-opacity:1"
   d="m 4897.988,2863.633 v -488.527 h 46.567 v 488.527 z m -125.941,-95.673 h -207.433 v -44.027 h 207.433 z m -382.058,95.673 v -488.527 h 46.567 v 488.527 z m 507.999,-529.167 V 1845.94 h 46.567 v 488.526 z m -507.999,0 V 1845.94 h 46.567 v 488.526 z M 4897.988,1805.3 v -488.527 h 46.567 V 1805.3 Z m -507.999,0 v -488.527 h 46.567 V 1805.3 Z m 507.999,-529.167 V 787.606 h 46.567 v 488.527 z m -507.999,0 V 787.606 h 46.567 v 488.527 z M 4897.988,746.966 V 258.44 h 46.567 v 488.526 z m -507.999,0 V 258.44 h 46.567 v 488.526 z m 382.058,-624.84 H 4564.614 V 78.1 h 207.433 z" /><path
   id="path42476-9"
   style="font-weight:900;font-size:16px;line-height:1.25;font-family:JuliaMono;-inkscape-font-specification:'JuliaMono Heavy';white-space:pre;fill:#389826;fill-opacity:1;stroke:#389826;stroke-width:40;stroke-linecap:round;stroke-linejoin:bevel;stroke-miterlimit:4;stroke-dasharray:none;stroke-opacity:1"
   d="M 3373.992,3921.966 V 3433.44 h 46.567 v 488.526 z m -125.941,-95.673 h -207.433 v -44.027 h 207.433 z m -382.058,95.673 V 3433.44 h 46.567 v 488.526 z M 3373.992,3392.8 v -488.527 h 46.567 V 3392.8 Z m -507.999,0 v -488.527 h 46.567 V 3392.8 Z m 1204.169,-561.764 148.59,-408.516 h 52.917 l -148.59,408.516 z m -60.113,-63.076 h -207.433 v -44.027 h 207.433 z m -253.999,0 h -207.434 v -44.027 h 207.434 z m -890.057,95.673 v -488.527 h 46.567 v 488.527 z m 951.863,-539.327 q 23.495,-33.443 41.698,-72.178 18.203,-38.523 28.363,-77.47 10.372,-38.947 10.372,-72.602 0,-57.996 -20.955,-118.11 -20.743,-60.113 -59.478,-117.263 h 51.646 q 42.545,55.457 67.099,119.38 24.765,63.923 24.765,122.767 0,37.465 -11.43,73.025 -11.43,35.348 -31.115,68.791 -19.474,33.444 -48.895,73.66 z m -61.806,-85.513 h -207.434 v -44.027 h 207.434 z m -382.058,95.673 V 1845.94 h 46.567 v 488.526 z m 686.433,-970.28 h 52.917 l 148.59,408.517 h -52.917 z m -304.375,345.44 H 3548.616 V 1665.6 h 207.434 z m -288.713,-213.783 h -61.383 l -80.01,-148.59 h 92.71 z m 542.712,-315.383 h -207.433 v -44.027 h 207.433 z m -253.999,0 h -207.434 v -44.027 h 207.434 z m -507.999,0 h -207.433 v -44.027 h 207.433 z" /><path
   id="path70523"
   style="font-weight:900;font-size:16px;line-height:1.25;font-family:JuliaMono;-inkscape-font-specification:'JuliaMono Heavy';white-space:pre;fill:#808080;fill-opacity:1;stroke:#808080;stroke-width:10;stroke-linecap:round;stroke-linejoin:bevel;stroke-miterlimit:4;stroke-dasharray:none;stroke-opacity:1"
   d="m 8024.297,2486.866 q -21.1667,0 -30.0567,-8.89 -8.89,-8.89 -8.89,-30.056 0,-21.379 8.89,-30.057 8.89,-8.89 30.0567,-8.89 21.3783,0 30.0567,8.89 8.89,8.68 8.89,30.057 0,21.166 -8.89,30.056 -8.678,8.89 -30.0567,8.89 z m 239.8178,268.817 q -82.55,0 -82.55,-72.39 V 2464.43 h -63.5 v -48.26 h 130.81 v 248.073 q 0,13.123 4.233,21.378 4.233,8.26 10.5834,11.854 6.35,3.6 12.7,3.6 30.0566,0 51.6466,-11.007 v 54.187 q -16.7216,7.62 -30.6916,9.53 -13.7584,1.9 -33.2317,1.9 z m -331.4695,-25.823 q 0,16.933 9.313,27.94 9.525,11.006 26.035,11.006 16.0866,0 24.13,-12.065 8.043,-12.065 8.043,-28.998 V 2567.3 h -99.9067 v -49.53 h 167.64 v 204.893 q 0,30.268 -11.6416,52.493 -11.43,22.225 -34.0784,34.29 -22.4366,12.277 -54.61,12.277 -31.75,0 -53.5516,-11.853 -21.8017,-11.642 -32.5967,-32.385 -10.795,-20.744 -10.795,-47.625 z" /><path
   id="path42484-7"
   style="font-weight:900;font-size:16px;line-height:1.25;font-family:JuliaMono;-inkscape-font-specification:'JuliaMono Heavy';white-space:pre;fill:#808080;fill-opacity:1;stroke:#808080;stroke-width:40;stroke-linecap:round;stroke-linejoin:bevel;stroke-miterlimit:4;stroke-dasharray:none;stroke-opacity:1"
   d="m 7626.1528,3889.37 148.59,-408.517 h 52.9167 l -148.59,408.517 z m -60.1128,-63.077 h -207.4333 v -44.027 H 7566.04 Z m -253.9992,0 h -207.4333 v -44.027 h 207.4333 z m -382.0578,95.673 V 3433.44 h 46.5666 v 488.526 z M 7945.9803,3392.8 v -488.527 h 46.5667 V 3392.8 Z m -507.9986,0 v -488.527 h 46.5666 V 3392.8 Z m -125.9409,-95.674 H 7104.6075 V 3253.1 h 207.4333 z m 150.2825,-534.67 q -23.9183,0 -34.925,-10.795 -10.795,-10.795 -10.795,-34.501 0,-23.707 10.795,-34.29 11.0067,-10.584 34.925,-10.584 23.9184,0 34.5017,10.584 10.795,10.583 10.795,34.29 0,23.706 -10.795,34.501 -10.5833,10.795 -34.5017,10.795 z m -150.2825,5.5 h -207.4333 v -44.027 h 207.4333 z m -253.9995,0 H 6850.608 v -44.027 h 207.4333 z m -457.6228,-345.44 h 52.9167 l 148.59,408.516 h -52.9167 z m -178.4342,441.113 v -488.527 h 46.5667 v 488.527 z m -125.9411,-95.673 h -207.4334 v -44.027 h 207.4334 z M 5964.574,2554.172 h -51.2234 l -16.9333,-148.59 h 84.2433 z m -176.5295,213.784 H 5580.611 v -44.027 h 207.4335 z m -253.9995,0 h -207.433 v -44.027 h 207.433 z m -457.622,-345.44 h 52.916 l 148.59,408.516 h -52.916 z m 2869.5573,-88.054 v -488.526 h 46.5667 v 488.526 z m -507.9986,0 v -488.526 h 46.5666 v 488.526 z m -125.9409,-95.673 h -207.4333 v -44.027 h 207.4333 z m -382.0578,95.673 v -488.526 h 46.5666 v 488.526 z m -507.9987,0 v -488.526 h 46.5667 v 488.526 z m -507.9987,0 v -488.526 h 46.5667 v 488.526 z m -125.9411,-95.673 H 5580.611 v -44.027 h 207.4335 z m -316.6525,85.513 q -29.422,-40.216 -49.107,-73.66 -19.473,-33.443 -30.903,-68.791 -11.43,-35.56 -11.43,-73.025 0,-58.844 24.553,-122.767 24.765,-63.923 67.31,-119.38 h 51.647 q -38.735,57.15 -59.69,117.263 -20.743,60.114 -20.743,118.11 0,33.655 10.16,72.602 10.371,38.947 28.575,77.47 18.203,38.735 41.698,72.178 z m 2474.5883,-519.006 v -488.527 h 46.5667 v 488.527 z m -507.9986,0 v -488.527 h 46.5666 v 488.527 z m -507.9987,0 v -488.527 h 46.5666 v 488.527 z m -507.9987,0 v -488.527 h 46.5667 v 488.527 z m -414.6537,-309.457 h -61.3833 l -80.01,-148.59 h 92.71 z m -219.2861,213.783 H 5580.611 v -44.026 h 207.4335 z m -701.8855,63.077 148.59,-408.517 h 52.917 l -148.59,408.517 z m 2733.8805,-592.243 h -207.4334 v -44.027 h 207.4334 z m -1015.9977,0 h -207.4333 v -44.027 h 207.4333 z m -507.9986,0 h -207.4334 v -44.027 h 207.4334 z m -507.9987,0 H 5580.611 v -44.027 h 207.4335 z m -253.9995,0 h -207.433 v -44.027 h 207.433 z" /></svg>
